<svg xmlns="http://www.w3.org/2000/svg" width="22" height="22" viewBox="0 0 22 22">
  <g id="Group_2" data-name="Group 2" transform="translate(-400 -2471)">
    <rect id="Rectangle_1" data-name="Rectangle 1" width="22" height="22" transform="translate(400 2471)" fill="none"/>
    <path id="Path_3" data-name="Path 3" d="M0,9.749a11.465,11.465,0,0,0,7.3,5.2,8.124,8.124,0,0,0,4.977-.436,4.765,4.765,0,0,1,2.577-.752A2.32,2.32,0,0,1,16.7,15.1s.052.105.1.109.091-.106.091-.106a2.315,2.315,0,0,0,.1-1.09,6.6,6.6,0,0,0-.393-1.624,6.411,6.411,0,0,0-1.015-1.709,8.375,8.375,0,0,0-1.008-6.56A13.881,13.881,0,0,0,10.447-.04S13.591,4.094,12,8.075a51.775,51.775,0,0,1-8.34-6.722,58.3,58.3,0,0,0,4.7,5.964,41.952,41.952,0,0,1-6.767-5.1s4.466,6.177,8.037,8.7C9.629,10.924,5.767,13.759,0,9.749Z" transform="translate(402.5 2474.39)" fill="#007aff"/>
  </g>
</svg>
